<?xml version="1.0" standalone="no"?>
<!DOCTYPE svg PUBLIC "-//W3C//DTD SVG 20010904//EN"
 "http://www.w3.org/TR/2001/REC-SVG-20010904/DTD/svg10.dtd">
<svg version="1.0" xmlns="http://www.w3.org/2000/svg"
 width="117.000000pt" height="127.000000pt" viewBox="0 0 117.000000 127.000000"
 preserveAspectRatio="xMidYMid meet">

<g transform="translate(0.000000,127.000000) scale(0.100000,-0.100000)"
fill="#000000" stroke="none">
<path d="M390 1228 c1 -24 27 -61 34 -49 4 6 12 9 17 6 14 -9 11 -25 -6 -25
-18 0 -6 -39 18 -54 29 -19 41 7 22 45 l-16 34 19 -24 c22 -27 39 -13 23 18
-22 39 -112 79 -111 49z"/>
<path d="M599 1167 c-19 -12 -36 -31 -38 -42 -3 -17 -2 -18 14 -5 17 14 17 13
6 -8 -13 -25 -9 -52 8 -52 6 0 17 14 26 30 9 17 12 29 8 28 -4 -2 -8 2 -8 7 0
6 4 9 10 8 13 -4 37 35 30 47 -9 15 -19 12 -56 -13z"/>
<path d="M749 1034 c-35 -39 -140 -111 -194 -135 -44 -20 -46 -22 -30 -39 11
-12 15 -31 13 -57 -3 -33 -8 -40 -42 -57 -35 -17 -42 -18 -65 -5 -14 8 -30 25
-36 38 -10 23 -13 23 -96 17 -95 -6 -162 -26 -196 -58 -36 -34 -27 -38 34 -16
66 23 203 37 203 21 0 -6 -11 -18 -25 -27 -13 -9 -37 -37 -52 -63 -35 -61 -40
-156 -8 -179 30 -22 41 -17 54 24 31 94 108 164 239 218 210 86 312 146 312
184 0 33 -64 160 -81 160 -3 0 -16 -12 -30 -26z"/>
<path d="M395 1032 c-16 -11 -36 -26 -44 -35 -19 -24 6 -31 78 -24 70 8 91 15
91 32 0 18 -25 26 -60 18 -35 -7 -40 4 -7 17 22 9 22 9 -3 9 -14 1 -38 -7 -55
-17z m42 -28 c-3 -3 -12 -4 -19 -1 -8 3 -5 6 6 6 11 1 17 -2 13 -5z"/>
<path d="M960 975 c0 -11 -14 -51 -30 -90 -33 -75 -39 -147 -18 -205 10 -30 9
-35 -9 -47 -18 -12 -20 -19 -12 -46 10 -36 -3 -98 -26 -117 -18 -15 -52 -4
-65 21 -15 28 -28 23 -44 -16 -18 -41 -39 -44 -103 -15 -67 30 -87 30 -91 -1
-4 -36 24 -142 54 -206 14 -29 45 -74 70 -100 l44 -48 -6 52 c-4 29 -4 67 0
86 6 33 46 87 64 87 4 0 2 -33 -5 -72 -14 -81 -8 -151 14 -173 24 -25 28 -18
29 53 0 64 29 192 43 192 4 0 14 -32 23 -71 10 -40 29 -86 44 -106 25 -33 27
-33 45 -17 10 9 16 21 13 26 -4 6 -8 69 -9 142 -1 72 -6 142 -10 156 -7 23 -5
23 30 -10 21 -19 50 -52 66 -73 28 -39 28 -39 34 -14 7 26 -7 59 -50 123 -14
20 -25 45 -25 56 0 17 2 18 30 3 33 -17 70 -20 70 -5 0 5 -13 16 -29 25 -64
32 -91 107 -111 300 -6 61 -15 114 -21 120 -6 5 -9 2 -9 -10z"/>
<path d="M105 940 c-18 -7 -18 -8 7 -15 31 -8 58 -1 58 15 0 12 -36 12 -65 0z"/>
<path d="M281 901 c15 -23 89 -56 111 -48 7 2 -6 9 -28 16 -23 6 -54 21 -69
33 l-27 21 13 -22z"/>
<path d="M70 860 c-9 -6 -10 -10 -3 -10 6 0 15 5 18 10 8 12 4 12 -15 0z"/>
</g>
</svg>
